<svg data-v-fde0c5aa="" xmlns="http://www.w3.org/2000/svg" viewBox="0 0 300 300" class="iconLeft"><!----><defs data-v-fde0c5aa=""><!----></defs><rect data-v-fde0c5aa="" fill="#257DC8" x="0" y="0" width="300px" height="300px" class="logo-background-square"></rect><defs data-v-fde0c5aa=""><!----></defs><g data-v-fde0c5aa="" id="60576d74-d9d1-4884-a873-66b8b8b778f2" fill="#ffffff" transform="matrix(3.2940860126452445,0,0,3.2940860126452445,119.54017767101396,115.1889634545718)"><path d="M4.35 12.89L4.35 12.89Q3.50 12.54 2.97 13.34L2.97 13.34Q2.24 14.49 1.86 14.29L1.86 14.29Q1.67 14.21 1.57 13.85Q1.48 13.48 1.47 12.94Q1.46 12.40 1.52 11.76Q1.58 11.12 1.71 10.49L1.71 10.49Q1.83 9.90 2.04 9.24Q2.25 8.58 2.49 8.04Q2.73 7.49 2.95 7.15Q3.18 6.82 3.35 6.89L3.35 6.89Q3.51 6.97 3.55 7.27Q3.58 7.57 3.58 7.94L3.58 7.94Q3.58 8.05 3.59 8.16Q3.60 8.27 3.61 8.39L3.61 8.39Q3.70 8.97 3.95 9.32Q4.20 9.66 4.76 9.81L4.76 9.81Q5.05 9.90 5.12 9.78Q5.19 9.66 5.25 9.46L5.25 9.46Q5.33 9.04 5.36 8.43Q5.39 7.81 5.36 7.29L5.36 7.29Q5.33 6.85 5.21 6.50Q5.10 6.15 4.76 5.80L4.76 5.80Q4.44 5.52 3.96 5.27Q3.47 5.03 3.01 4.97L3.01 4.97Q2.70 4.94 2.35 5.05Q2.00 5.17 1.65 5.56L1.65 5.56Q1.22 6.06 0.85 6.76Q0.49 7.45 0.22 8.25Q-0.04 9.06-0.21 9.92Q-0.38 10.78-0.43 11.61Q-0.48 12.45-0.41 13.19Q-0.34 13.93-0.13 14.50L-0.13 14.50Q0 14.90 0.24 15.19Q0.49 15.48 0.73 15.64L0.73 15.64Q1.01 15.78 1.36 15.94Q1.72 16.10 2.16 16.16L2.16 16.16Q2.58 16.21 3.00 16.05Q3.43 15.89 3.70 15.62L3.70 15.62Q3.95 15.34 4.20 14.92Q4.45 14.50 4.61 14.01L4.61 14.01Q4.75 13.59 4.73 13.31Q4.70 13.03 4.35 12.89ZM9.90 7.66L9.90 7.66Q9.65 7.39 9.30 7.22Q8.95 7.04 8.55 6.97L8.55 6.97Q8.51 6.96 8.46 6.96L8.46 6.96Q8.40 6.96 8.34 6.96L8.34 6.96Q8.06 6.96 7.78 7.08Q7.50 7.20 7.28 7.43L7.28 7.43Q6.89 7.87 6.59 8.46Q6.29 9.06 6.08 9.73Q5.87 10.40 5.76 11.12Q5.66 11.83 5.66 12.52L5.66 12.52Q5.66 13.05 5.72 13.54Q5.78 14.03 5.94 14.46L5.94 14.46L5.92 14.46Q6.03 14.78 6.23 15.05Q6.43 15.32 6.65 15.50L6.65 15.50Q6.92 15.69 7.22 15.80Q7.53 15.90 7.84 15.95L7.84 15.95Q7.91 15.96 7.99 15.97Q8.06 15.97 8.15 15.97L8.15 15.97Q8.82 15.97 9.34 15.37L9.34 15.37Q9.67 14.91 9.91 14.32Q10.15 13.73 10.30 13.07Q10.46 12.40 10.54 11.72Q10.61 11.03 10.61 10.37L10.61 10.37Q10.61 9.65 10.53 9.03L10.53 9.03Q10.46 8.60 10.32 8.27Q10.18 7.94 9.90 7.66ZM8.71 8.76L8.71 8.76Q8.81 8.79 8.85 9.14Q8.89 9.48 8.89 9.97L8.89 9.97Q8.89 10.42 8.85 10.91Q8.81 11.40 8.72 11.83L8.72 11.83Q8.64 12.35 8.52 12.80Q8.40 13.26 8.27 13.59Q8.13 13.93 8.00 14.12Q7.87 14.31 7.74 14.31L7.74 14.31Q7.71 14.31 7.70 14.29L7.70 14.29Q7.56 14.22 7.50 13.89Q7.45 13.57 7.45 13.09L7.45 13.09Q7.45 12.67 7.50 12.20Q7.55 11.73 7.64 11.28L7.64 11.28Q7.73 10.86 7.87 10.42Q8.01 9.97 8.16 9.60Q8.30 9.24 8.45 9.00Q8.60 8.76 8.71 8.76ZM12.99 14.24L12.99 14.24Q13.06 14.66 13.15 14.81Q13.24 14.97 13.44 15.06L13.44 15.06Q13.66 15.20 13.99 15.29L13.99 15.29Q14.03 15.30 14.07 15.31Q14.11 15.32 14.18 15.32L14.18 15.32Q14.36 15.32 14.42 15.21Q14.48 15.11 14.55 14.87L14.55 14.87Q14.63 14.60 14.74 14.24Q14.85 13.87 14.99 13.47Q15.13 13.06 15.29 12.62Q15.44 12.18 15.60 11.75L15.60 11.75Q15.47 12.64 15.39 13.46Q15.30 14.28 15.27 14.74L15.27 14.74L15.27 14.73Q15.26 14.80 15.26 14.94L15.26 14.94Q15.26 15.37 15.60 15.61L15.60 15.61Q15.74 15.72 15.96 15.81Q16.18 15.90 16.41 15.99L16.41 15.99L16.48 15.99Q16.66 15.99 16.74 15.87Q16.81 15.75 16.86 15.53L16.86 15.53Q16.93 14.94 17.06 14Q17.19 13.06 17.35 12.03Q17.50 11.00 17.65 10.03Q17.81 9.06 17.92 8.40L17.92 8.40L17.92 8.41Q17.95 8.34 17.95 8.27L17.95 8.27Q17.95 8.19 17.95 8.11L17.95 8.11Q17.95 7.90 17.86 7.76Q17.78 7.63 17.60 7.52L17.60 7.52Q17.28 7.32 16.97 7.20Q16.66 7.07 16.39 6.97L16.39 6.97Q16.16 6.89 16.03 6.89L16.03 6.89Q15.71 6.89 15.53 7.20Q15.36 7.50 15.12 8.19L15.12 8.19L15.12 8.18Q14.88 8.76 14.62 9.46Q14.36 10.15 14.14 10.79L14.14 10.79Q14.06 10.05 14.01 9.62Q13.97 9.18 13.95 8.95Q13.93 8.71 13.92 8.61Q13.92 8.51 13.92 8.43L13.92 8.43Q13.87 8.06 13.78 7.83Q13.68 7.60 13.33 7.41L13.33 7.41Q13.06 7.27 12.82 7.18Q12.57 7.08 12.22 7.01L12.22 7.01Q12.18 7 12.12 7L12.12 7Q12.08 7 12.04 7L12.04 7Q11.82 7 11.71 7.11Q11.61 7.22 11.54 7.53L11.54 7.53Q11.45 7.95 11.36 8.53Q11.27 9.11 11.17 9.77Q11.07 10.43 10.98 11.14Q10.88 11.84 10.80 12.51Q10.72 13.17 10.66 13.76Q10.60 14.35 10.58 14.77L10.58 14.77L10.58 14.94Q10.58 15.20 10.65 15.34Q10.72 15.48 10.91 15.61L10.91 15.61Q11.24 15.86 11.61 15.97L11.61 15.97Q11.65 15.99 11.69 16.00Q11.73 16.00 11.80 16.00L11.80 16.00Q11.97 16.00 12.04 15.90Q12.11 15.79 12.14 15.58L12.14 15.58Q12.21 14.83 12.35 13.79Q12.49 12.75 12.66 11.66L12.66 11.66Q12.73 12.38 12.81 13.03Q12.89 13.69 12.99 14.24ZM21.92 8.76L21.92 8.76Q22.12 8.74 22.21 8.67Q22.30 8.60 22.30 8.40L22.30 8.40Q22.30 8.33 22.30 8.29Q22.29 8.25 22.27 8.19L22.27 8.19Q22.25 7.98 22.18 7.78Q22.12 7.57 22.04 7.38L22.04 7.38Q21.90 7.10 21.78 7.01Q21.66 6.92 21.45 6.92L21.45 6.92L21.38 6.92Q20.58 6.96 19.76 7.10Q18.94 7.24 18.31 7.46L18.31 7.46L18.31 7.71Q18.31 8.15 18.26 8.72Q18.21 9.30 18.14 9.94Q18.07 10.58 17.98 11.25Q17.89 11.91 17.81 12.53L17.81 12.53Q17.71 13.23 17.64 13.80Q17.57 14.38 17.54 14.70L17.54 14.70L17.54 14.87Q17.54 15.12 17.61 15.27Q17.67 15.43 17.86 15.58L17.86 15.58Q18.05 15.69 18.29 15.81Q18.54 15.93 18.77 15.93L18.77 15.93Q18.93 15.93 19.04 15.85Q19.15 15.76 19.17 15.54L19.17 15.54Q19.18 15.44 19.19 15.35Q19.21 15.26 19.22 15.15L19.22 15.15Q19.29 14.62 19.40 14Q19.50 13.38 19.61 12.71L19.61 12.71Q20.02 12.59 20.41 12.50Q20.79 12.40 21.15 12.31L21.15 12.31Q21.35 12.28 21.44 12.20Q21.53 12.12 21.53 11.94L21.53 11.94Q21.53 11.84 21.48 11.69L21.48 11.69L21.49 11.70Q21.45 11.51 21.39 11.30Q21.34 11.10 21.22 10.82L21.22 10.82Q21.06 10.50 20.66 10.50L20.66 10.50L20.62 10.50Q20.45 10.51 20.30 10.52Q20.15 10.53 19.99 10.56L19.99 10.56Q20.02 10.40 20.05 10.25Q20.08 10.09 20.10 9.94L20.10 9.94Q20.15 9.70 20.19 9.47Q20.23 9.24 20.27 9.04L20.27 9.04Q20.52 8.99 20.76 8.95Q20.99 8.92 21.22 8.88L21.22 8.88Q21.41 8.85 21.58 8.82Q21.76 8.79 21.92 8.76ZM26.24 7.66L26.24 7.66Q25.98 7.39 25.63 7.22Q25.28 7.04 24.89 6.97L24.89 6.97Q24.85 6.96 24.79 6.96L24.79 6.96Q24.74 6.96 24.68 6.96L24.68 6.96Q24.40 6.96 24.12 7.08Q23.84 7.20 23.62 7.43L23.62 7.43Q23.23 7.87 22.93 8.46Q22.62 9.06 22.41 9.73Q22.20 10.40 22.10 11.12Q21.99 11.83 21.99 12.52L21.99 12.52Q21.99 13.05 22.06 13.54Q22.12 14.03 22.27 14.46L22.27 14.46L22.26 14.46Q22.37 14.78 22.57 15.05Q22.76 15.32 22.99 15.50L22.99 15.50Q23.25 15.69 23.56 15.80Q23.87 15.90 24.18 15.95L24.18 15.95Q24.25 15.96 24.33 15.97Q24.40 15.97 24.49 15.97L24.49 15.97Q25.16 15.97 25.68 15.37L25.68 15.37Q26.01 14.91 26.25 14.32Q26.49 13.73 26.64 13.07Q26.80 12.40 26.87 11.72Q26.95 11.03 26.95 10.37L26.95 10.37Q26.95 9.65 26.87 9.03L26.87 9.03Q26.80 8.60 26.66 8.27Q26.52 7.94 26.24 7.66ZM25.05 8.76L25.05 8.76Q25.14 8.79 25.19 9.14Q25.23 9.48 25.23 9.97L25.23 9.97Q25.23 10.42 25.19 10.91Q25.14 11.40 25.06 11.83L25.06 11.83Q24.98 12.35 24.86 12.80Q24.74 13.26 24.61 13.59Q24.47 13.93 24.34 14.12Q24.21 14.31 24.08 14.31L24.08 14.31Q24.05 14.31 24.04 14.29L24.04 14.29Q23.90 14.22 23.84 13.89Q23.79 13.57 23.79 13.09L23.79 13.09Q23.79 12.67 23.84 12.20Q23.88 11.73 23.98 11.28L23.98 11.28Q24.07 10.86 24.21 10.42Q24.35 9.97 24.49 9.60Q24.64 9.24 24.79 9.00Q24.93 8.76 25.05 8.76ZM30.53 15.54L30.53 15.54Q30.73 15.72 30.89 15.79Q31.05 15.86 31.21 15.86L31.21 15.86Q31.26 15.86 31.35 15.83Q31.43 15.81 31.53 15.78L31.53 15.78Q31.51 15.79 31.57 15.79L31.57 15.79Q31.68 15.76 31.79 15.71Q31.89 15.67 32.02 15.51L32.02 15.51Q32.16 15.34 32.16 15.19L32.16 15.19Q32.16 15.01 31.99 14.80L31.99 14.80Q31.79 14.59 31.59 14.32Q31.39 14.04 31.19 13.75Q30.98 13.45 30.79 13.16Q30.60 12.87 30.44 12.61L30.44 12.61Q31.19 12.11 31.73 11.53Q32.27 10.95 32.49 10.28L32.49 10.28L32.48 10.29Q32.54 10.16 32.55 10.03Q32.56 9.90 32.56 9.74L32.56 9.74Q32.56 9.45 32.51 9.18L32.51 9.18Q32.37 8.58 32.16 8.18Q31.95 7.78 31.71 7.45L31.71 7.45Q31.47 7.14 31.19 7.02Q30.90 6.90 30.58 6.90L30.58 6.90Q30.03 6.90 29.44 7.18Q28.85 7.46 28.31 7.78L28.31 7.78Q28.20 7.87 28.09 8.23Q27.99 8.58 27.89 9.11Q27.79 9.63 27.70 10.28Q27.61 10.93 27.52 11.60Q27.44 12.26 27.37 12.89Q27.30 13.52 27.26 14L27.26 14Q27.23 14.24 27.21 14.43Q27.19 14.62 27.17 14.74L27.17 14.74L27.17 14.92Q27.17 15.18 27.23 15.33Q27.29 15.48 27.43 15.61L27.43 15.61Q27.54 15.72 27.69 15.77Q27.83 15.82 27.99 15.88L27.99 15.88Q28.01 15.88 28.04 15.89Q28.07 15.90 28.10 15.92L28.10 15.92Q28.17 15.95 28.22 15.95Q28.27 15.96 28.31 15.96L28.31 15.96Q28.48 15.96 28.55 15.87Q28.62 15.78 28.64 15.58L28.64 15.58L28.73 15.04Q28.78 14.67 28.84 14.29Q28.90 13.90 28.97 13.50L28.97 13.50Q29.34 14.10 29.78 14.66Q30.21 15.22 30.53 15.54ZM30.60 8.93L30.60 8.93Q30.90 8.93 30.97 9.14L30.97 9.14Q30.95 9.11 30.95 9.17L30.95 9.17Q30.95 9.34 30.85 9.57Q30.74 9.80 30.55 10.07Q30.35 10.33 30.07 10.59Q29.78 10.85 29.41 11.06L29.41 11.06Q29.50 10.64 29.58 10.26L29.58 10.26Q29.64 9.98 29.69 9.71Q29.74 9.44 29.81 9.18L29.81 9.18Q30.03 9.04 30.23 8.99Q30.42 8.93 30.60 8.93ZM37.49 8.68L37.51 8.68Q37.70 8.65 37.79 8.58Q37.87 8.51 37.87 8.36L37.87 8.36Q37.87 8.25 37.86 8.20Q37.86 8.16 37.84 8.09L37.84 8.09Q37.79 7.88 37.70 7.65Q37.60 7.42 37.44 7.18L37.44 7.18L37.44 7.20Q37.34 7.04 37.22 6.97Q37.10 6.90 36.86 6.90L36.86 6.90Q36.47 6.93 35.98 6.97Q35.49 7.01 34.99 7.08Q34.48 7.15 34.01 7.24Q33.53 7.32 33.15 7.42L33.15 7.42Q33.00 7.49 32.91 7.55Q32.83 7.60 32.83 7.76L32.83 7.76Q32.83 7.84 32.89 7.99L32.89 7.99L32.87 7.99Q32.94 8.19 33.05 8.48Q33.15 8.78 33.31 9.00L33.31 9.00L33.29 8.99Q33.40 9.17 33.49 9.24Q33.59 9.31 33.74 9.31L33.74 9.31Q33.87 9.31 33.98 9.25L33.98 9.25Q34.03 9.23 34.14 9.21Q34.24 9.20 34.38 9.17L34.38 9.17L34.43 9.17Q34.31 9.80 34.21 10.56Q34.10 11.31 34.01 12.07Q33.91 12.82 33.83 13.51Q33.75 14.20 33.73 14.70L33.73 14.70L33.73 14.69Q33.71 14.74 33.71 14.80L33.71 14.80Q33.71 14.85 33.71 14.91L33.71 14.91Q33.71 15.29 33.91 15.48Q34.12 15.67 34.43 15.81L34.43 15.81Q34.45 15.82 34.48 15.83Q34.50 15.83 34.52 15.85L34.52 15.85Q34.66 15.92 34.78 15.97Q34.89 16.02 35 16.02L35 16.02Q35.15 16.02 35.24 15.93Q35.32 15.85 35.35 15.62L35.35 15.62Q35.45 14.87 35.57 14.04Q35.69 13.22 35.82 12.37Q35.95 11.52 36.09 10.68Q36.23 9.84 36.36 9.07L36.36 9.07Q36.36 9.02 36.37 8.95Q36.39 8.89 36.40 8.82L36.40 8.82Q36.51 8.81 36.64 8.80Q36.76 8.79 36.88 8.76L36.88 8.76Q37.03 8.74 37.18 8.72Q37.34 8.71 37.49 8.68L37.49 8.68ZM42.56 8.47L42.55 8.47Q42.64 8.19 42.64 8.04L42.64 8.04Q42.64 7.78 42.48 7.56L42.48 7.56Q42.39 7.46 42.27 7.34Q42.15 7.21 42.03 7.11Q41.90 7 41.78 6.93Q41.65 6.86 41.55 6.86L41.55 6.86Q41.43 6.86 41.34 6.93Q41.24 7 41.20 7.20L41.20 7.20Q41.13 7.34 41.08 7.47Q41.03 7.60 40.98 7.74L40.98 7.74Q40.74 8.33 40.50 8.90Q40.26 9.46 40.00 10.05L40.00 10.05Q39.84 9.38 39.72 8.83Q39.59 8.27 39.48 7.80L39.48 7.80Q39.35 7.43 39.24 7.25Q39.13 7.07 38.89 7L38.89 7Q38.70 6.93 38.49 6.93L38.49 6.93Q38.39 6.93 38.30 6.94Q38.22 6.94 38.15 6.96L38.15 6.96Q38.12 6.96 38.10 6.96Q38.08 6.97 38.07 6.97L38.07 6.97Q37.87 7 37.79 7.08Q37.72 7.15 37.72 7.32L37.72 7.32Q37.72 7.45 37.76 7.59L37.76 7.59L37.76 7.57Q37.91 8.39 38.14 9.41Q38.37 10.44 38.61 11.48L38.61 11.48Q38.67 11.72 38.72 11.96Q38.77 12.19 38.82 12.43L38.82 12.43Q38.75 12.91 38.72 13.35Q38.68 13.79 38.64 14.17L38.64 14.17Q38.61 14.34 38.61 14.49Q38.60 14.64 38.57 14.80L38.57 14.80L38.57 14.78Q38.56 14.85 38.56 14.91L38.56 14.91Q38.56 14.97 38.56 15.02L38.56 15.02Q38.56 15.23 38.62 15.37Q38.68 15.50 38.82 15.64L38.82 15.64Q39.03 15.78 39.24 15.88Q39.45 15.99 39.61 16.06L39.61 16.06Q39.68 16.09 39.74 16.10Q39.80 16.11 39.84 16.11L39.84 16.11Q40.00 16.11 40.07 16.02Q40.14 15.93 40.18 15.69L40.18 15.69Q40.25 15.09 40.34 14.46Q40.43 13.83 40.56 13.12L40.56 13.12Q40.87 12.47 41.18 11.79Q41.50 11.10 41.77 10.48Q42.04 9.86 42.25 9.33Q42.46 8.81 42.56 8.47L42.56 8.47Z"></path></g><defs data-v-fde0c5aa=""><!----></defs><g data-v-fde0c5aa="" id="d85c08b5-02f9-4018-a559-ac2aa61751e7" stroke="none" fill="#21C7D4" transform="matrix(0.6896864005200686,0,0,0.6896864005200686,37.72153238933871,114.44666657937944)"><path d="M71.8 80.5H10.7v.2l1.4 3.4 1.1 2.6h3.9l1.7 5h2.4l1.7-5h52.7l1.6 5h2.4l1.7-5h6.5l1-2.5 1.5-3.7H73.5zM12.6 35.7l3.3-.4c.6-.1 1.1-.1 1.7-.1 6.9 0 12.5 5.8 12.5 13v.9c5.8-2.1 12.4-3.2 19.4-3.2 7.8 0 15.4 1.4 21.5 4v-1.8c0-7.2 5.6-13 12.5-13 .6 0 1.1 0 1.7.1l3.3.4c1.4.2 2.8.6 4.1 1.3 0 0-7.6-25.5-43.2-25.5S11.8 35.8 11.8 35.8h.1c.2 0 .5-.1.7-.1z"></path><path d="M30.1 50.7V79h40.8V51.6c-6.1-2.7-13.7-4.2-21.5-4.2-6.9 0-13.6 1.2-19.3 3.3zM28.5 79V48.1c0-6.8-5.7-12.2-12.4-11.3l-3.3.4c-.2 0-.4.1-.6.1H12c-2.9.6-5.4 2.3-7 4.8-1.7 2.7-2.1 6-1.3 9.2L11.3 79h17.2zM92 38.5c-1.2-.7-2.5-1.1-3.8-1.3l-3.3-.4c-6.7-.9-12.4 4.5-12.4 11.3V79h17.2l7.5-27.6c1.4-5.1-.7-10.4-5.2-12.9z"></path></g><!----></svg>